<?xml version="1.0" encoding="iso-8859-1"?>
<!-- Generator: Adobe Illustrator 16.0.0, SVG Export Plug-In . SVG Version: 6.00 Build 0)  -->
<!DOCTYPE svg PUBLIC "-//W3C//DTD SVG 1.1//EN" "http://www.w3.org/Graphics/SVG/1.1/DTD/svg11.dtd">
<!-- License: CC0. Made by undefinedSVG Repo -->
<svg version="1.1" id="Capa_1" xmlns="http://www.w3.org/2000/svg" xmlns:xlink="http://www.w3.org/1999/xlink" x="0px" y="0px"
	 width="20px" height="20px" viewBox="0 0 48.748 48.748" style="enable-background:new 0 0 48.748 48.748;" fill="#000" fill-opacity="0.6"
	 xml:space="preserve">
<g>
	<g>
		<polygon points="32.729,33.495 31.397,33.532 31.343,32.812 31.56,32.9 32.081,32.85 32.026,32.184 30.587,32.2 30.19,31.678 
			30.212,31.405 28.356,29.732 27.905,30.093 30.551,33.333 30.929,33.46 30.929,33.641 30.425,33.641 30.551,34.038 33.81,34.182 
					"/>
		<polygon points="34.257,32.875 34.459,32.361 34.817,32.037 34.817,31.801 35.04,31.654 35.04,29.876 34.817,29.783 34.71,29.229 
			34.386,29.229 34.176,29.79 33.927,30.014 32.042,31.034 32.042,32.044 32.671,32.875 		"/>
		<polygon points="35.04,32.238 35.04,33.553 35.526,33.553 35.454,32.714 35.833,32.85 35.833,33.443 36.228,33.408 36.215,31.654 
			35.263,32.023 35.274,32.238 		"/>
		<polygon points="40.183,33.127 40.849,33.479 40.866,33.802 40.435,33.802 40.451,34.468 41.892,34.378 42.415,33.818 
			42.972,33.766 42.972,34.792 43.944,34.792 43.944,34.378 43.458,34.378 43.368,33.127 41.047,32.073 40.397,32.416 
			39.794,32.432 39.84,31.805 39.265,31.462 38.444,32.28 38.994,32.956 		"/>
		<polygon points="23.115,29.427 23.341,30.038 24.159,29.732 24.249,28.889 23.59,28.757 		"/>
		<polygon points="13.502,36.557 12.386,36.413 12.386,37.275 12.782,37.745 12.477,38.212 12.026,38.734 12.026,39.688 
			12.64,40.283 13.196,39.387 14.294,37.78 14.817,35.26 14.15,35.26 		"/>
		<polygon points="36.087,34.092 36.37,34.182 36.45,33.896 36.087,33.896 		"/>
		<rect x="34.386" y="34.182" width="0.432" height="0.239"/>
		<polygon points="35.296,34.182 35.04,34.421 35.04,34.63 35.438,34.589 35.438,34.421 35.708,34.421 35.708,34.21 35.903,34.182 
			35.903,33.977 35.472,33.977 		"/>
		<polygon points="36.126,34.421 36.126,34.799 36.546,34.799 36.546,34.609 36.978,34.609 36.978,34.389 37.28,34.421 
			37.241,34.038 36.747,34.109 36.704,34.359 36.153,34.421 		"/>
		<path d="M24.374,0C10.935,0,0.001,10.935,0.001,24.374c0,13.438,10.934,24.374,24.373,24.374
			c13.439,0,24.373-10.936,24.373-24.374C48.747,10.935,37.813,0,24.374,0z M24.374,2c7.846,0,14.755,4.062,18.75,10.189
			l-2.23-0.944l-8.371-0.432l-0.782-0.396l-1.244-0.185L29.562,10.2l-0.848,0.856l-0.357-0.028l-1.127-0.836H23.91l-1.541-0.919
			l-3.084,0.195l-2.344,1.048l0.019,1.215l-0.722,0.216l-0.162-1.216l-0.268-0.422l-0.812-0.199l-0.188,0.729l0.242,0.594
			l-2.88-0.188l-1.375,0.639l-0.208-0.603l-0.343,0.09l-0.251,0.665l-0.721,0.563l-1.757-0.05l-0.079-0.387l1.836-0.081l0.377-0.323
			l-2.213-1.027l-0.797,0.024C10.733,5.437,17.158,2,24.374,2z M12.791,18.616l-0.035-0.836l0.181-0.414l0.728-0.063l0.621,0.26
			l0.028,0.432l-0.883-0.049l-0.045,0.4l1.107,0.738v0.54l0.478,0.352v0.378l-0.244,0.234l-0.567-0.047l-0.109-0.17l-0.891-0.063
			l0.063-0.289l0.47-0.406v-0.339L12.791,18.616z M7.544,22.397l-1.053-0.783l-1.107,0.107v0.676H5.032l-0.377-0.27l-1.918-0.486
			v-1.242l-0.381,0.029c0.104-0.586,0.228-1.165,0.377-1.734l1.506,1.017l-0.207,0.277L3.27,19.947l0.294,0.415l0.468,0.104
			l0.551-0.229l-0.01-0.662l0.244-0.123L4.62,19.245l-1.127-0.629L3.196,17.78h0.938l0.299,0.297l0.809,0.695l0.034,0.842
			l0.837,0.893l0.311-1.223l0.58-0.316l0.109,1l0.566,0.621l1.709-0.029l0.505,0.38v0.892l-0.62,0.566L7.544,22.397L7.544,22.397z
			 M4.356,14.595l0.001-0.198c0.267-0.532,0.55-1.055,0.856-1.562v0.415l0.609,0.284l0.039,0.58l-0.857,1.275l-1.11-0.01
			c0.106-0.24,0.212-0.48,0.326-0.717L4.356,14.595z M5.943,11.73h0.344v0.433l-1.059,0.646c0.218-0.36,0.448-0.713,0.686-1.059
			L5.943,11.73z M9.59,19.669l-1.401-0.057L7.77,19.669v-0.956l0.313-0.353l0.34-0.105l0.743-0.086l0.163-0.255l0.304,0.151
			l0.043,0.871l0.813,0.335l0.072,0.397L9.59,19.669L9.59,19.669z M8.766,40.382l0.218-0.225l0.576-1.026l0.738-0.163v-0.864
			l0.486-0.576l1.026-1.403l-0.216-2.14l-0.451-0.795l2.022-1.93l2.227-3.184l-0.433-0.199l-2.313,0.488l-0.595-0.297L9.62,23.49
			l0.172-0.199l2.408,2.926l0.059,0.905l0.558,0.56l1.134-0.074l2.367-1.715l0.742-0.483l-0.014-0.595l-0.79-0.104
			c0,0-2.772-1.307-2.772-1.365c0-0.058,0.017-1.121,0.017-1.121h0.612l0.09,0.774l1.286,0.739l1.468,0.071l3.188,0.521l0.746,0.471
			v0.729l-0.096,0.991l1.633,2.687l0.527,0.122l0.525-0.764l0.291-2.174l0.544-1.17l0.877-0.328l1.55,0.148l1.942,1.729v2.484
			l2.566,2.455l0.135-0.43l-2.08-2.971l0.217-0.865l1.101,1.246l0.61,0.063l0.808-0.536l-0.133-0.81l-1.332-1.071l-0.056-0.973
			l0.381-0.514l0.675,0.217l-0.056,0.459l0.388,0.595l0.342-0.243l-0.188-0.702l1.89-0.676l0.829-0.692l-0.127-1.251l-1.646-1.729
			l-0.026-1.404h0.729l2.268,1.729l0.641-0.172l-0.424-0.557l-1.215-0.738l0.072-1.098l1.439,0.002l0.117-1.359l-0.549-0.724
			l0.323-0.351l0.701,0.703l0.226-0.298l-0.899-1.026l-2.241-0.27l-0.297-0.594l0.648-0.918l0.513,0.377l1.538,0.136l1.945-1.296
			l0.323,0.404l-0.434,0.676v0.676l1.782,1.457l0.568-0.297l-0.217-0.973l-1.266-1.185l1.672-0.108v-0.486l0.811-0.161l-0.621-0.428
			l0.027-0.329l1.701,0.274l0.294-0.248c2.267,3.497,3.589,7.661,3.589,12.131c0,4.603-1.396,8.882-3.788,12.44l-0.03-0.666
			l-0.641-1.096l-0.575-0.027l-0.235,1.988l-1.1-0.082l-0.307-0.185l-0.039-0.788l0.583,0.118l0.491-0.479l-1.045-0.629h-1.229
			l-0.883,1.254h-0.36v-0.396l-1.058,0.08l-1.675,1.906l-0.887,0.013l-0.99,0.684l-0.071,2.952l-0.595,0.576v0.521l2.879-0.99
			l2.336-0.094l0.334,0.733c-3.754,2.847-8.428,4.538-13.489,4.538C18.307,46.748,12.8,44.316,8.766,40.382z"/>
	</g>
</g>
</svg>
