<svg width="250px" height="60px" viewBox="12.47 195.17 305.819 117.577" xmlns="http://www.w3.org/2000/svg">
  <text style="font-family: Arial, sans-serif; font-size: 31.5489px; font-weight: 700; line-height: 20.8969px; stroke-width: 7.58205px; white-space: pre;" transform="matrix(1.026381, 0, 0, 0.956349, -104.913918, 76.036812)" x="196.512" y="199.224">U’s Factory</text>
  <path d="M 80.343 220.936 C 79.612 221.335 78.886 221.769 78.166 222.239 C 72.554 225.901 68.163 231.325 65.411 237.691 L 65.411 220.936 L 80.343 220.936 Z M 84.076 223.103 L 84.076 244.944 L 66.393 244.944 C 68.869 234.573 75.703 226.679 84.076 223.103 Z" style=""></path>
  <path d="M 43.89 220.936 L 62.254 220.936 L 62.254 241.694 L 43.89 220.936 Z M 43.561 225.611 L 60.663 244.944 L 43.561 244.944 L 43.561 225.611 Z" style=""></path>
  <path d="M 62.254 269.511 C 52.401 268.559 44.501 259.658 43.639 248.512 L 62.254 248.512 L 62.254 269.511 Z" style=""></path>
  <path d="M 65.411 269.511 L 65.411 248.483 L 84.076 248.483 C 83.361 259.758 75.411 268.736 65.411 269.511 Z" style=""></path>
</svg>