<svg width="280px" height="70px" viewBox="-8.314 193.389 409.144 125.891" xmlns="http://www.w3.org/2000/svg">
  <text style="font-family: Arial, sans-serif; font-size: 31.5489px; font-weight: 700; line-height: 20.8969px; stroke-width: 7.58205px; white-space: pre;" transform="matrix(1.416587, 0, 0, 1.349709, -203.699585, 12.884626)" x="196.512" y="199.224">U’s Factory</text>
  <path d="M 53.521 216.779 C 52.414 217.341 51.315 217.955 50.226 218.617 C 41.728 223.786 35.082 231.441 30.916 240.425 L 30.916 216.779 L 53.521 216.779 Z M 59.173 219.836 L 59.173 250.662 L 32.402 250.662 C 36.149 236.025 46.497 224.884 59.173 219.836 Z" style=""></path>
  <path d="M -1.665 216.779 L 26.135 216.779 L 26.135 246.074 L -1.665 216.779 Z M -2.163 223.377 L 23.727 250.662 L -2.163 250.662 L -2.163 223.377 Z" style=""></path>
  <path d="M 26.135 285.333 C 11.221 283.989 -0.74 271.428 -2.044 255.697 L 26.135 255.697 L 26.135 285.333 Z" style=""></path>
  <path d="M 30.916 285.333 L 30.916 255.657 L 59.173 255.657 C 58.09 271.57 46.053 284.24 30.916 285.333 Z" style=""></path>
</svg>