<svg viewBox="135.5 75.6 150 150" xmlns="http://www.w3.org/2000/svg">
  <defs></defs>
  <path class="sharpcorners_een" d="M 286.453 150.628 L 286.453 191.537 C 286.453 210.335 275.238 225.628 261.453 225.628 L 211.453 225.628 C 197.668 225.628 186.453 210.335 186.453 191.537 L 206.453 191.537 C 206.453 195.301 208.698 198.355 211.453 198.355 L 261.453 198.355 C 264.208 198.355 266.453 195.301 266.453 191.537 L 266.453 150.628 C 266.453 146.864 264.208 143.81 261.453 143.81 L 211.453 143.81 C 208.698 143.81 206.453 146.864 206.453 150.628 L 186.453 150.628 C 186.453 131.83 197.668 116.537 211.453 116.537 L 261.453 116.537 C 275.238 116.537 286.453 131.83 286.453 150.628 Z M 236.453 150.628 L 216.453 150.628 C 216.453 154.392 214.208 157.446 211.453 157.446 L 161.453 157.446 C 158.698 157.446 156.453 154.392 156.453 150.628 L 156.453 109.719 C 156.453 105.955 158.698 102.901 161.453 102.901 L 211.453 102.901 C 214.208 102.901 216.453 105.955 216.453 109.719 L 236.453 109.719 C 236.453 90.921 225.238 75.628 211.453 75.628 L 161.453 75.628 C 147.668 75.628 136.453 90.921 136.453 109.719 L 136.453 150.628 C 136.453 169.426 147.668 184.719 161.453 184.719 L 211.453 184.719 C 225.238 184.719 236.453 169.426 236.453 150.628 Z" style="fill: rgb(51, 51, 51);"></path>
</svg>