<svg viewBox="0 0 500 500" xmlns="http://www.w3.org/2000/svg">
  <defs></defs>
  <text style="font-family: Arial, sans-serif; font-size: 31.5489px; font-weight: 700; line-height: 20.8969px; stroke-width: 7.58205px; white-space: pre;" transform="matrix(1.64521, 0, 0, 1.692559, -165.6707, -129.208359)" x="196.512" y="199.224">U’s Factory</text>
  <path d="M 88.143 153.013 L 112.508 153.013 L 112.508 177.642 L 88.143 153.013 Z M 87.706 158.556 L 110.4 181.502 L 87.706 181.502 L 87.706 158.556 Z" style="fill: rgb(0, 113, 206);"></path>
  <path d="M 136.504 153.013 C 135.54 153.479 134.574 154.001 133.613 154.559 C 126.168 158.901 120.346 165.339 116.698 172.894 L 116.698 153.013 L 136.504 153.013 Z M 141.457 155.585 L 141.457 181.502 L 118.003 181.502 C 121.282 169.192 130.347 159.826 141.457 155.585 Z" style="fill: rgb(0, 113, 206);"></path>
  <path d="M 112.508 210.644 C 99.436 209.526 88.956 198.96 87.813 185.734 L 112.508 185.734 L 112.508 210.644 Z" style="fill: rgb(0, 113, 206);"></path>
  <path d="M 116.698 210.644 L 116.698 185.699 L 141.457 185.699 C 140.502 199.081 129.961 209.732 116.698 210.644 Z" style="fill: rgb(224, 0, 0);"></path>
</svg>