<svg viewBox="321.465 170.678 22 22.688" width="30" height="30" fill="none" xmlns="http://www.w3.org/2000/svg">

  <path fill-rule="evenodd" clip-rule="evenodd" d="M 343.005 174.22 C 342.752 172.825 342.011 171.735 341.06 171.356 C 339.345 170.678 332.465 170.678 332.465 170.678 C 332.465 170.678 325.585 170.678 323.87 171.356 C 322.919 171.735 322.178 172.825 321.925 174.22 C 321.465 176.75 321.465 182.021 321.465 182.021 C 321.465 182.021 321.465 187.294 321.925 189.824 C 322.178 191.217 322.919 192.309 323.87 192.69 C 325.586 193.366 332.465 193.366 332.465 193.366 C 332.465 193.366 339.345 193.366 341.06 192.69 C 342.011 192.309 342.752 191.217 343.005 189.824 C 343.465 187.298 343.465 182.021 343.465 182.021 C 343.465 182.021 343.465 176.75 343.005 174.22 Z M 330.215 178.693 L 330.215 185.18 L 335.965 182.021 L 330.215 178.693 Z" fill="#999" style=""></path>
</svg>