<svg viewBox="26.315 -4.094 158.48 157.895" width="160" height="142" xmlns="http://www.w3.org/2000/svg">
  <defs>
    <path id="a" d="M0 0h142v142H0z"></path>
    <path id="path-1" d="M0 0h142v142H0z"></path>
    <path id="path-2" d="M0 0h142v142H0z"></path>
  </defs>
  <g fill="none" fill-rule="evenodd" transform="matrix(1, 0, 0, 1, 15.321641, 3.756343)">
    <circle fill="#FFF" cx="89" cy="71" r="71"></circle>
    <g transform="translate(18)">
      <mask id="b" fill="#fff">
        <path d="M0 0h142v142H0z"></path>
      </mask>
      <path d="M74.106.067a.5.5 0 0 0-.021 1l.054.002h.022a.5.5 0 0 0 .022-.999h-.008l-.04-.002-.007-.001h-.022Zm3.028.196a.5.5 0 0 0-.042.998l.054.005a.5.5 0 0 0 .089-.996l-.012-.001-.038-.004h-.008c-.015-.002-.03-.002-.043-.002Zm3.016.325a.5.5 0 0 0-.063.996l.053.007A.501.501 0 0 0 80.273.6l-.021-.003-.037-.005a.482.482 0 0 0-.065-.004Zm2.999.454a.5.5 0 0 0-.085.993l.054.009a.5.5 0 1 0 .172-.985.25.25 0 0 1-.03-.005l-.025-.004a.51.51 0 0 0-.086-.008Zm2.978.584a.5.5 0 0 0-.106.988l.053.012a.5.5 0 0 0 .214-.977l-.011-.002-.044-.01a.483.483 0 0 0-.106-.011Zm2.949.712a.501.501 0 0 0-.127.983l.052.014a.501.501 0 0 0 .259-.966l-.06-.016a.54.54 0 0 0-.124-.015Zm2.916.838a.5.5 0 0 0-.15.978l.053.016a.501.501 0 0 0 .627-.328.5.5 0 0 0-.34-.63.281.281 0 0 1-.041-.013.519.519 0 0 0-.15-.023Zm2.876.965a.5.5 0 0 0-.17.97l.052.019a.5.5 0 0 0 .34-.941l-.003-.001-.01-.003-.002-.001-.038-.014a.5.5 0 0 0-.17-.029ZM97.7 5.229a.5.5 0 0 0-.19.963l.05.02a.5.5 0 0 0 .382-.924l-.054-.022a.503.503 0 0 0-.188-.037Zm2.782 1.21a.498.498 0 0 0-.21.954l.05.023a.503.503 0 0 0 .664-.245.5.5 0 0 0-.245-.663l-.028-.013a.503.503 0 0 0-.231-.056Zm2.728 1.329a.5.5 0 0 0-.23.944l.049.025a.499.499 0 0 0 .673-.215.5.5 0 0 0-.225-.679l-.041-.021a.497.497 0 0 0-.226-.054Zm2.667 1.445a.5.5 0 0 0-.248.934l.047.027a.499.499 0 0 0 .499-.866l-.052-.03a.498.498 0 0 0-.246-.065Zm2.603 1.559a.5.5 0 0 0-.267.923l.046.029a.5.5 0 0 0 .534-.845l-.05-.032a.496.496 0 0 0-.263-.075Zm2.533 1.669a.5.5 0 0 0-.285.912l.045.03a.499.499 0 0 0 .57-.821l-.036-.025-.011-.007a.494.494 0 0 0-.283-.089Zm2.459 1.776a.5.5 0 0 0-.302.9l.043.032a.498.498 0 0 0 .7-.097.5.5 0 0 0-.095-.699l-.028-.021-.006-.005-.003-.002-.008-.006a.493.493 0 0 0-.301-.102Zm2.38 1.881a.501.501 0 0 0-.318.886l.042.034a.498.498 0 0 0 .704-.067.5.5 0 0 0-.066-.703l-.044-.037a.5.5 0 0 0-.317-.113Zm2.299 1.98a.5.5 0 0 0-.335.872l.04.036a.502.502 0 0 0 .707-.037.5.5 0 0 0-.037-.706l-.041-.036a.497.497 0 0 0-.334-.129Zm2.21 2.077a.499.499 0 0 0-.35.857l.04.038a.5.5 0 0 0 .703-.711l-.044-.043a.5.5 0 0 0-.348-.141Zm2.122 2.169a.5.5 0 0 0-.365.842l.037.04a.499.499 0 0 0 .73-.682c-.005-.007-.014-.016-.02-.022l-.017-.019a.501.501 0 0 0-.365-.159Zm2.025 2.259a.5.5 0 0 0-.379.825l.036.042a.5.5 0 0 0 .76-.649c-.012-.015-.025-.031-.04-.046a.497.497 0 0 0-.377-.172Zm1.928 2.342a.5.5 0 0 0-.393.81l.034.042a.496.496 0 0 0 .702.084.5.5 0 0 0 .086-.7l-.013-.016-.001-.001a.498.498 0 0 0-.415-.219Zm1.825 2.423a.5.5 0 0 0-.405.793l.03.044a.5.5 0 0 0 .815-.581l-.035-.05a.5.5 0 0 0-.405-.206Zm1.72 2.499a.499.499 0 0 0-.418.775l.03.045a.498.498 0 0 0 .692.144.499.499 0 0 0 .144-.692l-.025-.038a.5.5 0 0 0-.423-.234Zm1.61 2.571a.5.5 0 0 0-.43.756l.029.047a.5.5 0 0 0 .86-.511l-.022-.037-.007-.011a.5.5 0 0 0-.43-.244Zm1.499 2.637a.5.5 0 0 0-.44.738l.026.048a.5.5 0 0 0 .88-.475l-.022-.041-.005-.009a.5.5 0 0 0-.44-.261Zm1.383 2.7a.5.5 0 0 0-.449.718l.023.049a.502.502 0 0 0 .668.232.5.5 0 0 0 .233-.667l-.003-.005a.931.931 0 0 0-.022-.045.497.497 0 0 0-.45-.282Zm1.266 2.757a.5.5 0 0 0-.459.698l.022.05a.5.5 0 0 0 .918-.395l-.022-.053a.5.5 0 0 0-.46-.3Zm1.145 2.809a.498.498 0 0 0-.467.678l.019.051a.501.501 0 0 0 .935-.355l-.008-.021-.002-.006-.011-.029a.5.5 0 0 0-.466-.318Zm1.022 2.855a.5.5 0 0 0-.474.658l.017.052a.5.5 0 1 0 .947-.322l-.013-.037-.003-.009a.5.5 0 0 0-.474-.342Zm.898 2.897a.5.5 0 0 0-.482.638l.015.052a.5.5 0 1 0 .95-.317l-.003-.01a.5.5 0 0 0-.48-.363Zm.77 2.934a.5.5 0 0 0-.487.617l.013.052a.5.5 0 0 0 .973-.232l-.007-.029-.006-.028a.5.5 0 0 0-.485-.38Zm.644 2.964a.5.5 0 0 0-.492.596l.01.053a.5.5 0 1 0 .983-.19l-.011-.054a.5.5 0 0 0-.49-.405Zm.514 2.99a.5.5 0 0 0-.495.574l.008.054a.5.5 0 0 0 .989-.148v-.004a.934.934 0 0 1-.008-.052.5.5 0 0 0-.494-.424Zm.385 3.008a.5.5 0 0 0-.498.553l.006.054a.5.5 0 0 0 .995-.103l-.003-.03a.5.5 0 0 0-.5-.474Zm.256 3.023-.032.001a.5.5 0 0 0-.468.53l.004.054a.5.5 0 0 0 .498.469l.032-.001a.5.5 0 0 0 .468-.528l-.004-.059a.5.5 0 0 0-.498-.466Zm.126 3.031h-.01a.5.5 0 0 0-.49.51v.055a.5.5 0 0 0 .5.49h.01a.5.5 0 0 0 .49-.51V69.512a.5.5 0 0 0-.5-.489Zm-.002 3.035a.5.5 0 0 0-.5.489l-.001.054a.5.5 0 0 0 .489.511l.01.001a.5.5 0 0 0 .5-.487v-.017c.002-.013.002-.027.002-.04a.5.5 0 0 0-.49-.511h-.01Zm-.13 3.031a.5.5 0 0 0-.5.468l-.003.054a.502.502 0 0 0 .999.065v-.006l.002-.038v-.011a.5.5 0 0 0-.466-.531l-.032-.001Zm-.26 3.023a.5.5 0 0 0-.496.446l-.006.054a.5.5 0 0 0 .994.108l.006-.055a.5.5 0 0 0-.498-.553Zm-.388 3.007a.5.5 0 0 0-.494.426l-.008.053a.5.5 0 0 0 .988.151c.002-.006.002-.012.003-.019l.006-.036a.5.5 0 0 0-.495-.575Zm-.518 2.989a.501.501 0 0 0-.49.404l-.011.053a.5.5 0 0 0 .982.195l.003-.016.006-.034c0-.002 0-.005.002-.008a.5.5 0 0 0-.492-.594Zm-.646 2.964a.5.5 0 0 0-.486.383l-.013.053a.5.5 0 0 0 .972.237l.014-.059a.5.5 0 0 0-.487-.614Zm-.774 2.933a.5.5 0 0 0-.481.362l-.015.052a.501.501 0 0 0 .96.278l.013-.044.003-.01a.5.5 0 0 0-.48-.638Zm-.901 2.896a.5.5 0 0 0-.474.341l-.017.052a.5.5 0 0 0 .948.318l.01-.029.008-.025a.5.5 0 0 0-.475-.657Zm-1.025 2.854a.5.5 0 0 0-.467.321l-.02.051a.5.5 0 0 0 .934.359l.005-.015.016-.039a.501.501 0 0 0-.468-.677Zm-1.148 2.808a.5.5 0 0 0-.46.301l-.021.049a.5.5 0 0 0 .917.399l.004-.008.019-.045a.5.5 0 0 0-.46-.696Zm-1.27 2.755a.502.502 0 0 0-.45.281l-.023.049a.501.501 0 0 0 .898.441l.026-.054a.498.498 0 0 0-.45-.717Zm-1.385 2.698a.502.502 0 0 0-.441.262l-.025.048a.5.5 0 0 0 .878.478 1.32 1.32 0 0 0 .028-.052.499.499 0 0 0-.44-.736Zm-1.502 2.636a.499.499 0 0 0-.43.243l-.027.047a.5.5 0 0 0 .858.514l.006-.012.023-.038a.5.5 0 0 0-.43-.754Zm-1.613 2.568a.503.503 0 0 0-.42.225l-.03.046a.5.5 0 0 0 .834.553c.01-.016.02-.032.032-.048v-.001a.5.5 0 0 0-.416-.775Zm-1.723 2.498a.498.498 0 0 0-.406.207l-.032.044a.5.5 0 0 0 .809.588l.036-.05a.5.5 0 0 0-.407-.789Zm-1.828 2.42a.5.5 0 0 0-.393.191l-.034.042a.5.5 0 0 0 .783.623l.037-.047a.5.5 0 0 0-.393-.809Zm-1.93 2.341a.5.5 0 0 0-.38.174l-.035.041a.5.5 0 0 0 .757.653l.005-.006.026-.03.005-.006a.5.5 0 0 0-.378-.826Zm-2.03 2.256a.5.5 0 0 0-.364.158l-.037.039a.5.5 0 0 0 .729.685l.016-.017c0-.001 0-.002.002-.002a.008.008 0 0 1 .004-.004l.015-.017a.499.499 0 0 0-.364-.842Zm-2.122 2.167a.5.5 0 0 0-.35.142l-.04.038a.5.5 0 0 0 .699.716l.032-.031.008-.008a.499.499 0 0 0-.35-.857Zm-2.214 2.074a.496.496 0 0 0-.334.128l-.041.036a.5.5 0 0 0 .668.745l.023-.021.018-.016a.499.499 0 0 0-.334-.872Zm-2.301 1.978a.499.499 0 0 0-.318.114l-.041.034a.5.5 0 1 0 .635.773l.02-.017.003-.002v-.002a.5.5 0 0 0-.3-.9Zm-2.383 1.877a.498.498 0 0 0-.301.101l-.043.033a.5.5 0 1 0 .6.799l.045-.034a.5.5 0 0 0-.301-.899Zm-2.462 1.774a.497.497 0 0 0-.283.088l-.044.031a.5.5 0 1 0 .566.824l.01-.008a.5.5 0 0 0-.25-.935Zm-2.535 1.666a.499.499 0 0 0-.265.077l-.046.028a.5.5 0 0 0 .53.848l.05-.031a.5.5 0 0 0-.27-.922Zm-2.604 1.556a.501.501 0 0 0-.247.065l-.047.027a.501.501 0 0 0 .492.871l.014-.008a.5.5 0 0 0-.212-.955Zm-2.67 1.442a.504.504 0 0 0-.227.055l-.048.025a.5.5 0 0 0 .453.892l.054-.028a.501.501 0 0 0-.231-.944Zm-2.728 1.326a.502.502 0 0 0-.208.046l-.05.022a.5.5 0 0 0 .415.91l.049-.022.004-.002a.499.499 0 0 0-.21-.954Zm-2.783 1.206a.487.487 0 0 0-.19.038l-.05.02a.5.5 0 0 0 .377.927.87.87 0 0 1 .054-.022.5.5 0 0 0-.191-.963Zm-2.833 1.085a.502.502 0 0 0-.17.03l-.05.018a.5.5 0 0 0 .337.942l.042-.015.012-.005a.499.499 0 0 0-.171-.97Zm-2.877.961a.476.476 0 0 0-.148.023l-.052.016a.5.5 0 1 0 .295.955l.052-.016a.5.5 0 0 0-.147-.978Zm-2.916.836a.516.516 0 0 0-.128.016l-.052.014a.5.5 0 0 0 .253.967l.005-.001.049-.013a.498.498 0 0 0-.127-.983Zm-2.95.708a.563.563 0 0 0-.107.011l-.053.012a.5.5 0 0 0 .212.977l.029-.006.028-.006a.5.5 0 0 0-.11-.988Zm-2.978.58a.507.507 0 0 0-.086.007l-.053.01a.5.5 0 1 0 .169.985l.032-.005.025-.005a.5.5 0 0 0-.087-.992Zm-3 .451a.468.468 0 0 0-.064.004l-.054.007a.5.5 0 1 0 .127.992l.01-.001.004-.001.04-.005a.5.5 0 0 0-.063-.996Zm-3.016.322-.043.001-.054.005a.5.5 0 0 0 .04.998l.043-.001.057-.005a.5.5 0 0 0-.043-.998Zm-3.03.192-.02.001-.054.002a.5.5 0 0 0 .02.999h.018l.06-.002a.5.5 0 0 0-.023-1Zm-3.088.064a.501.501 0 0 0-.004 1h.059a.5.5 0 0 0-.001-1h-.054Zm-3.035-.067a.5.5 0 0 0-.023.999l.014.001h.008a.022.022 0 0 0 .008.001l.027.001h.02a.5.5 0 0 0 .022-.999l-.054-.003H67.9Zm-3.028-.196a.5.5 0 0 0-.043.999h.003l.054.004a.5.5 0 0 0 .083-.996l-.054-.005a.619.619 0 0 0-.043-.002Zm-3.016-.324a.5.5 0 0 0-.065.995l.03.005.025.003a.5.5 0 1 0 .128-.992l-.054-.007a.458.458 0 0 0-.064-.004Zm-3-.454a.5.5 0 0 0-.086.992l.057.01a.5.5 0 0 0 .169-.986l-.054-.009a.488.488 0 0 0-.085-.007Zm-2.977-.583a.5.5 0 0 0-.098.99l.019.004.016.004a.5.5 0 0 0 .223-.975l-.053-.012a.492.492 0 0 0-.107-.011Zm-2.95-.712a.501.501 0 0 0-.13.983l.04.01.016.005a.5.5 0 1 0 .255-.967l-.052-.014a.475.475 0 0 0-.128-.017Zm-2.914-.838a.5.5 0 0 0-.152.976l.028.009.027.008a.499.499 0 0 0 .626-.329.5.5 0 0 0-.33-.626l-.051-.016a.506.506 0 0 0-.148-.022Zm-2.877-.964a.5.5 0 0 0-.17.97l.01.004.046.016a.5.5 0 0 0 .335-.942l-.052-.019a.493.493 0 0 0-.17-.029Zm-2.831-1.088a.5.5 0 0 0-.19.963l.025.01.026.011a.5.5 0 1 0 .378-.926l-.05-.021a.505.505 0 0 0-.19-.037Zm-2.782-1.21a.5.5 0 0 0-.2.959l.037.018.004.001a.495.495 0 0 0 .662-.246.5.5 0 0 0-.245-.663l-.05-.023a.495.495 0 0 0-.208-.046Zm-2.728-1.328a.5.5 0 0 0-.23.944l.049.026a.5.5 0 0 0 .457-.89l-.048-.025a.504.504 0 0 0-.228-.055Zm-2.667-1.445a.5.5 0 0 0-.248.934l.047.028a.501.501 0 0 0 .495-.87l-.047-.026a.492.492 0 0 0-.247-.066Zm-2.603-1.558a.5.5 0 0 0-.267.923l.013.008.035.022a.5.5 0 0 0 .53-.848l-.045-.029a.498.498 0 0 0-.266-.076Zm-2.533-1.669a.5.5 0 0 0-.285.911l.03.022.015.009a.499.499 0 1 0 .568-.823l-.045-.031a.497.497 0 0 0-.283-.088Zm-2.46-1.777a.5.5 0 0 0-.282.914l.003.003.024.018a.5.5 0 0 0 .599-.801l-.043-.033a.498.498 0 0 0-.301-.101Zm-2.381-1.879a.5.5 0 0 0-.321.883l.046.038a.498.498 0 0 0 .702-.069.5.5 0 0 0-.067-.704l-.042-.034a.499.499 0 0 0-.318-.114Zm-2.3-1.981a.499.499 0 0 0-.336.87l.044.04a.501.501 0 0 0 .668-.745l-.041-.036a.497.497 0 0 0-.334-.129Zm-2.211-2.076a.499.499 0 0 0-.351.856l.02.02a.498.498 0 0 0 .728.012.5.5 0 0 0-.008-.707l-.04-.038a.494.494 0 0 0-.35-.143Zm-2.121-2.169a.5.5 0 0 0-.365.841l.038.041a.497.497 0 0 0 .707.022.5.5 0 0 0 .022-.707l-.037-.039a.497.497 0 0 0-.365-.158Zm-2.026-2.258a.5.5 0 0 0-.379.826l.003.004.029.033.004.004a.498.498 0 0 0 .705.053.5.5 0 0 0 .053-.705l-.036-.041a.496.496 0 0 0-.38-.174Zm-1.928-2.343a.5.5 0 0 0-.392.81l.034.043a.498.498 0 0 0 .702.083.5.5 0 0 0 .083-.702l-.034-.043a.499.499 0 0 0-.393-.191Zm-1.826-2.422a.498.498 0 0 0-.405.791 1.03 1.03 0 0 0 .03.043l.002.002a.5.5 0 1 0 .81-.585l-.03-.044a.499.499 0 0 0-.407-.207Zm-1.72-2.499a.499.499 0 0 0-.417.774v.002l.005.006.013.02.003.004.009.014a.5.5 0 0 0 .836-.55l-.03-.045a.5.5 0 0 0-.42-.225Zm-1.611-2.571a.5.5 0 0 0-.43.755l.03.051a.5.5 0 0 0 .858-.515l-.028-.047a.498.498 0 0 0-.43-.244Zm-1.498-2.637a.5.5 0 0 0-.441.736l.029.053a.5.5 0 0 0 .878-.479l-.026-.047a.5.5 0 0 0-.44-.263Zm-1.384-2.699a.5.5 0 0 0-.45.716c.008.019.016.034.025.052a.499.499 0 1 0 .899-.438l-.024-.049a.5.5 0 0 0-.45-.281Zm-1.266-2.757a.5.5 0 0 0-.458.699l.01.024v.003l.012.023a.497.497 0 0 0 .657.26.5.5 0 0 0 .26-.658l-.022-.05a.5.5 0 0 0-.46-.301Zm-1.145-2.809a.5.5 0 0 0-.468.676l.019.05a.5.5 0 1 0 .936-.354l-.02-.05a.5.5 0 0 0-.467-.322Zm-1.022-2.855a.5.5 0 0 0-.457.71.5.5 0 1 0 .948-.317l-.017-.051a.5.5 0 0 0-.474-.342Zm-.898-2.897a.5.5 0 0 0-.481.637l.016.053a.497.497 0 0 0 .618.343.5.5 0 0 0 .343-.619l-.015-.052a.5.5 0 0 0-.481-.362Zm-.771-2.934a.5.5 0 0 0-.486.617l.006.026v.001l.006.026a.5.5 0 1 0 .973-.234l-.013-.052a.5.5 0 0 0-.486-.384Zm-.643-2.964a.5.5 0 0 0-.492.592l.009.049a.5.5 0 1 0 .984-.183l-.011-.054a.5.5 0 0 0-.49-.404Zm-.515-2.99a.5.5 0 0 0-.495.575c0 .003 0 .007.002.01v.005l.006.039a.501.501 0 0 0 .989-.149l-.008-.054a.5.5 0 0 0-.494-.426Zm-.385-3.008a.5.5 0 0 0-.498.553l.006.055a.5.5 0 1 0 .994-.107l-.005-.054a.502.502 0 0 0-.497-.447Zm-.256-3.022-.032.001a.5.5 0 0 0-.468.53l.002.034a.499.499 0 0 0 .5.489l.032-.001a.5.5 0 0 0 .468-.531l-.004-.054a.499.499 0 0 0-.498-.468ZM.5 71.986H.49a.5.5 0 0 0-.49.507v.06a.5.5 0 0 0 .5.487h.012A.5.5 0 0 0 1 72.529L1 72.475a.5.5 0 0 0-.5-.489Zm0-3.035a.499.499 0 0 0-.498.488L0 69.476 0 69.495a.5.5 0 0 0 .49.51H.5a.5.5 0 0 0 .5-.49l.002-.054a.5.5 0 0 0-.49-.51H.5Zm.13-3.032a.5.5 0 0 0-.498.465l-.001.022a.5.5 0 0 0 .465.567l.032.001a.5.5 0 0 0 .499-.469l.003-.054a.5.5 0 0 0-.467-.531l-.032-.001Zm.259-3.022a.5.5 0 0 0-.496.444l-.006.053v.004a.5.5 0 0 0 .995.106l.005-.054a.5.5 0 0 0-.498-.553Zm.388-3.008a.5.5 0 0 0-.493.425l-.003.015-.006.043a.5.5 0 0 0 .99.145l.008-.053a.5.5 0 0 0-.496-.575Zm.518-2.989a.5.5 0 0 0-.49.404l-.001.006-.01.051a.5.5 0 0 0 .982.188l.01-.053a.5.5 0 0 0-.491-.596Zm.646-2.964a.5.5 0 0 0-.49.404l-.006.023-.002.01a.5.5 0 1 0 .972.233l.013-.053a.5.5 0 0 0-.487-.617Zm.774-2.933a.5.5 0 0 0-.48.36c-.004.018-.011.04-.016.057a.5.5 0 0 0 .962.274l.015-.052a.5.5 0 0 0-.481-.639Zm.9-2.896a.5.5 0 0 0-.472.339l-.02.055a.5.5 0 1 0 .95.316l.017-.051a.5.5 0 0 0-.474-.659Zm1.026-2.854a.5.5 0 0 0-.466.319l-.02.049a.502.502 0 0 0 .465.683.5.5 0 0 0 .468-.321l.02-.051a.5.5 0 0 0-.467-.679Zm1.148-2.808a.5.5 0 0 0-.473.332.5.5 0 1 0 .91.417l.022-.05a.502.502 0 0 0-.46-.699Zm1.268-2.756a.5.5 0 0 0-.45.281l-.021.044-.003.006a.5.5 0 0 0 .9.437l.024-.049a.5.5 0 0 0-.45-.719Zm1.387-2.698a.499.499 0 0 0-.462.303l-.005.008a.5.5 0 0 0 .88.475l.026-.048a.498.498 0 0 0-.44-.738Zm1.5-2.636a.5.5 0 0 0-.43.244c-.003.007-.007.015-.012.022l-.017.028a.5.5 0 0 0 .86.51l.029-.047a.501.501 0 0 0-.43-.757Zm1.614-2.568a.5.5 0 0 0-.416.222l-.028.042-.004.007a.5.5 0 1 0 .836.549l.03-.045a.502.502 0 0 0-.418-.775Zm1.722-2.498a.5.5 0 0 0-.404.206l-.023.031-.011.016a.5.5 0 0 0 .812.584l.032-.044a.5.5 0 0 0-.406-.793Zm1.828-2.421a.501.501 0 0 0-.391.188l-.037.048a.5.5 0 0 0 .787.617l.034-.043a.5.5 0 0 0-.393-.81Zm1.93-2.341a.498.498 0 0 0-.38.174l-.035.042a.5.5 0 1 0 .758.652l.036-.041a.5.5 0 0 0-.38-.827Zm2.028-2.256a.497.497 0 0 0-.363.157 1.786 1.786 0 0 0-.042.044.5.5 0 0 0 .733.681l.037-.039a.5.5 0 0 0-.365-.843Zm2.123-2.167a.503.503 0 0 0-.348.14l-.044.044A.5.5 0 0 0 22 21l.038-.038a.5.5 0 0 0-.35-.858Zm2.213-2.074a.498.498 0 0 0-.343.136l-.012.01-.02.018a.5.5 0 0 0 .669.744l.04-.036a.5.5 0 0 0-.334-.872Zm2.3-1.978a.498.498 0 0 0-.316.113 1.701 1.701 0 0 0-.044.036.5.5 0 1 0 .637.771l.04-.034a.5.5 0 0 0-.317-.886Zm2.383-1.878a.5.5 0 0 0-.301.101l-.031.023-.015.011a.5.5 0 0 0 .605.797l.044-.033a.5.5 0 0 0-.302-.899Zm2.46-1.774a.495.495 0 0 0-.28.087l-.04.027-.008.005a.5.5 0 0 0 .568.823l.045-.03a.5.5 0 0 0-.284-.912Zm2.536-1.667a.496.496 0 0 0-.263.075l-.04.025-.01.006a.5.5 0 1 0 .533.847l.046-.029a.5.5 0 0 0-.266-.924Zm2.604-1.556a.498.498 0 0 0-.246.065l-.003.002-.03.016-.02.012a.5.5 0 0 0 .5.867l.047-.027a.5.5 0 0 0-.248-.935Zm2.669-1.443a.496.496 0 0 0-.226.055l-.053.027a.5.5 0 0 0 .459.888l.049-.025a.5.5 0 0 0-.23-.945Zm2.729-1.326c-.07 0-.14.015-.207.045l-.01.004a.5.5 0 1 0 .376.928l.05-.022a.5.5 0 0 0-.21-.955Zm2.783-1.207a.487.487 0 0 0-.19.038l-.051.021a.5.5 0 0 0 .38.925l.05-.021a.5.5 0 0 0-.19-.963Zm2.833-1.085a.502.502 0 0 0-.17.03l-.038.014-.012.004a.501.501 0 0 0 .338.941l.05-.018a.5.5 0 0 0-.168-.971Zm2.878-.961a.507.507 0 0 0-.187.034l-.016.005a.5.5 0 0 0 .299.955l.05-.016a.5.5 0 0 0-.146-.978Zm2.916-.836a.475.475 0 0 0-.128.017l-.02.005c-.004.001-.01.002-.013.004l-.012.003a.5.5 0 1 0 .247.969l.053-.014a.5.5 0 0 0-.127-.984Zm2.95-.709a.485.485 0 0 0-.106.012l-.005.001-.042.009-.01.002a.501.501 0 0 0 .216.977l.053-.012a.5.5 0 0 0-.106-.989Zm2.978-.58a.488.488 0 0 0-.085.007l-.01.002-.047.008a.5.5 0 0 0 .173.985l.054-.009a.5.5 0 0 0-.085-.993Zm3-.451a.5.5 0 1 0-.055 1.007c.02 0 .042-.002.064-.004l.054-.007a.5.5 0 0 0-.063-.996Zm3.016-.322c-.014 0-.028 0-.043.002l-.05.004h-.005a.5.5 0 0 0 .043.998l.043-.001.054-.005a.5.5 0 0 0-.042-.998Zm3.028-.193h-.018l-.033.002-.025.001a.5.5 0 0 0 .02.999h.023l.054-.003a.5.5 0 0 0-.021-.999ZM70.999 0h-.056a.5.5 0 0 0 .002 1h.054l.037-.002.036.002h.054a.5.5 0 1 0 .002-1h-.056l-.036.001L71 0h-.001Z" fill="#2E529D" mask="url(#b)"></path>
    </g>
    <g fill="#2E529D" fill-rule="nonzero">
      <path d="M76.611 93.2c-2.133 0-4.033-.58-5.7-1.74-1.666-1.16-2.96-2.807-3.88-4.94-.92-2.133-1.38-4.64-1.38-7.52s.46-5.387 1.38-7.52c.92-2.133 2.214-3.78 3.88-4.94 1.667-1.16 3.567-1.74 5.7-1.74 2.134 0 4.034.58 5.7 1.74 1.667 1.16 2.96 2.807 3.88 4.94.92 2.133 1.38 4.64 1.38 7.52s-.46 5.387-1.38 7.52c-.92 2.133-2.213 3.78-3.88 4.94-1.666 1.16-3.566 1.74-5.7 1.74Zm0-1.88c1.76 0 3.314-.487 4.66-1.46 1.347-.973 2.394-2.387 3.14-4.24.747-1.853 1.12-4.06 1.12-6.62 0-2.56-.373-4.767-1.12-6.62-.746-1.853-1.793-3.267-3.14-4.24-1.346-.973-2.9-1.46-4.66-1.46-1.76 0-3.313.487-4.66 1.46-1.346.973-2.393 2.387-3.14 4.24-.746 1.853-1.12 4.06-1.12 6.62 0 2.56.374 4.767 1.12 6.62.747 1.853 1.794 3.267 3.14 4.24 1.347.973 2.9 1.46 4.66 1.46ZM99.52 77.2c3.093.08 5.447.833 7.06 2.26 1.613 1.427 2.42 3.313 2.42 5.66 0 1.573-.373 2.967-1.12 4.18-.747 1.213-1.86 2.167-3.34 2.86-1.48.693-3.26 1.04-5.34 1.04-2.027 0-3.933-.34-5.72-1.02-1.787-.68-3.173-1.593-4.16-2.74l1.04-1.56c.907 1.013 2.14 1.84 3.7 2.48 1.56.64 3.273.96 5.14.96 2.48 0 4.387-.553 5.72-1.66 1.333-1.107 2-2.62 2-4.54 0-1.947-.68-3.467-2.04-4.56-1.36-1.093-3.4-1.64-6.12-1.64H97v-1.48l8.28-10.6H90.36V65h17.56v1.44l-8.4 10.76Z"></path>
    </g>
    <g fill="#2E529D" fill-rule="nonzero">
      <path d="M74.882 48.066c.983 0 1.753.235 2.31.704.557.47.836 1.115.836 1.936s-.279 1.465-.836 1.93c-.557.466-1.327.699-2.31.699h-2.068v2.431H72v-7.7h2.882Zm-.022 4.554c.763 0 1.346-.167 1.749-.5.403-.334.605-.805.605-1.414 0-.623-.202-1.102-.605-1.436-.403-.333-.986-.5-1.749-.5h-2.046v3.85h2.046ZM83.264 55.832c-.763 0-1.454-.17-2.073-.511a3.736 3.736 0 0 1-1.453-1.403c-.348-.594-.522-1.261-.522-2.002 0-.74.174-1.408.523-2.002a3.736 3.736 0 0 1 1.451-1.403A4.229 4.229 0 0 1 83.264 48c.763 0 1.45.169 2.063.506a3.745 3.745 0 0 1 1.446 1.403c.352.597.528 1.266.528 2.007 0 .74-.176 1.41-.528 2.008a3.745 3.745 0 0 1-1.447 1.402c-.612.337-1.3.506-2.062.506Zm0-.726a3.32 3.32 0 0 0 1.65-.413 2.985 2.985 0 0 0 1.155-1.143 3.233 3.233 0 0 0 .418-1.634c0-.601-.14-1.146-.418-1.633a2.985 2.985 0 0 0-1.155-1.145 3.32 3.32 0 0 0-1.65-.412 3.35 3.35 0 0 0-1.656.413 3.014 3.014 0 0 0-1.166 1.143 3.2 3.2 0 0 0-.423 1.634 3.2 3.2 0 0 0 .423 1.634c.283.487.672.869 1.166 1.144a3.35 3.35 0 0 0 1.656.412ZM89.127 48.066h.814v7.7h-.814zM98.884 48.066v7.7h-.671l-4.95-6.248v6.248h-.814v-7.7h.671l4.961 6.248v-6.248zM102.888 48.77h-2.706v-.704h6.226v.704h-2.706v6.996h-.814z"></path>
    </g>
  </g>
</svg>