<svg viewBox="0 0 500 500" xmlns="http://www.w3.org/2000/svg">
  <defs></defs>
  <path d="M 405.164 33.588 C 398.715 36.705 392.308 40.095 385.955 43.763 C 336.41 72.368 297.647 114.723 273.361 164.43 L 273.361 33.588 L 405.164 33.588 Z M 438.11 50.51 L 438.11 221.071 L 282.03 221.071 C 303.888 140.084 364.209 78.441 438.11 50.51 Z" style=""></path>
  <path d="M 83.397 33.588 L 245.492 33.588 L 245.492 195.7 L 83.397 33.588 Z M 80.494 70.099 L 231.45 221.071 L 80.494 221.071 L 80.494 70.099 Z" style=""></path>
  <path d="M 245.492 412.923 C 158.528 405.495 88.792 335.986 81.177 248.94 L 245.492 248.94 L 245.492 412.923 Z" style=""></path>
  <path d="M 273.361 412.923 L 273.361 248.707 L 438.11 248.707 C 431.8 336.762 361.636 406.872 273.361 412.923 Z" style=""></path>
</svg>