<svg width="357.857" height="379.568" viewBox="109.592 9.223 357.857 379.568" fill="none" xmlns="http://www.w3.org/2000/svg">

  <path d="M 112.495 9.223 L 274.59 9.223 L 274.59 171.335 Z M 109.592 45.734 L 260.548 196.706 L 109.592 196.706 Z" style="fill: rgb(0, 113, 206);"></path>
  <path d="M 274.59 388.558 C 187.626 381.13 117.89 311.621 110.275 224.575 L 274.59 224.575 Z" style="fill: rgb(0, 113, 206);"></path>
  <path d="M 302.459 388.791 L 302.459 224.575 L 467.208 224.575 C 460.898 312.63 390.734 382.74 302.459 388.791 Z" style="fill: rgb(224, 0, 0);"></path>
  <path d="M 298.153 9.223 L 434.262 9.223 C 427.813 12.34 421.406 15.73 415.053 19.398 C 362.468 49.758 322.029 95.607 298.153 149.296 Z M 467.208 201.063 L 309.994 201.063 C 330.836 117.931 391.987 54.575 467.208 26.145 Z" style="fill: rgb(0, 113, 206);"></path>
  
</svg>



