


<svg viewBox="74.505 36.2 357.616 379.568" width="357.616" height="379.568" xmlns="http://www.w3.org/2000/svg" > 

  <path d="M 77.408 36.2 L 239.503 36.2 L 239.503 198.312 L 77.408 36.2 Z M 74.505 72.711 L 225.461 223.683 L 74.505 223.683 L 74.505 72.711 Z" style="fill: rgb(0, 113, 206);"></path>
  <path d="M 399.175 36.2 C 392.726 39.317 386.319 42.707 379.966 46.375 C 330.421 74.98 291.658 117.335 267.372 167.042 L 267.372 36.2 Z M 432.121 53.122 L 432.121 223.683 L 276.041 223.683 C 297.899 142.696 358.22 81.053 432.121 53.122 Z" style="fill: rgb(0, 113, 206);"></path>
  <path d="M 239.503 415.535 C 152.539 408.107 82.803 338.598 75.188 251.552 L 239.503 251.552 L 239.503 415.535 Z" style="fill: rgb(0, 113, 206);"></path>
  <path d="M 267.372 415.535 L 267.372 251.319 L 432.121 251.319 C 425.811 339.374 355.647 409.484 267.372 415.535 Z" style="fill: rgb(224, 0, 0);"></path>
</svg>