<svg viewBox="0 0 500 500" xmlns="http://www.w3.org/2000/svg">
  <defs></defs>
  <path d="M 379.873 65.113 C 373.424 68.23 367.017 71.62 360.664 75.288 C 311.119 103.893 272.356 146.248 248.07 195.955 L 248.07 65.113 L 379.873 65.113 Z M 412.819 82.035 L 412.819 252.596 L 256.739 252.596 C 278.597 171.609 338.918 109.966 412.819 82.035 Z" style="fill: rgb(153, 153, 153);"></path>
  <path d="M 58.106 65.113 L 220.201 65.113 L 220.201 227.225 L 58.106 65.113 Z M 55.203 101.624 L 206.159 252.596 L 55.203 252.596 L 55.203 101.624 Z" style="fill: rgb(153, 153, 153);"></path>
  <path d="M 220.201 444.448 C 133.237 437.02 63.501 367.511 55.886 280.465 L 220.201 280.465 L 220.201 444.448 Z" style="fill: rgb(153, 153, 153);"></path>
  <path d="M 248.07 444.448 L 248.07 280.232 L 412.819 280.232 C 406.509 368.287 336.345 438.397 248.07 444.448 Z" style="fill: rgb(153, 153, 153);"></path>
</svg>